<svg width="44" height="116" viewBox="0 0 44 116" fill="none" xmlns="http://www.w3.org/2000/svg">
<path d="M23.784 129H22.784V130H23.784V129ZM23.784 39.1468H24.784V38.1468H23.784V39.1468ZM-7.08462 39.1468H-8.08462V40.1468H-7.08462V39.1468ZM-7.08462 25.5803L-7.11401 24.5807L-8.08462 24.6093V25.5803H-7.08462ZM14.9363 18.6988L15.5363 19.4988L15.5421 19.4944L15.5478 19.49L14.9363 18.6988ZM25.7502 1.59323V0.593231H24.9364L24.771 1.39001L25.7502 1.59323ZM42.6591 1.59323H43.6591V0.593231H42.6591V1.59323ZM42.6591 129V130H43.6591V129H42.6591ZM24.784 129V39.1468H22.784V129H24.784ZM23.784 38.1468H-7.08462V40.1468H23.784V38.1468ZM-6.08462 39.1468V25.5803H-8.08462V39.1468H-6.08462ZM-7.05522 26.5799C2.01484 26.3131 9.5683 23.9748 15.5363 19.4988L14.3363 17.8988C8.76955 22.0738 1.64239 24.3232 -7.11401 24.5807L-7.05522 26.5799ZM15.5478 19.49C21.4983 14.8919 25.2375 8.984 26.7293 1.79645L24.771 1.39001C23.3791 8.0966 19.9091 13.5924 14.3249 17.9075L15.5478 19.49ZM25.7502 2.59323H42.6591V0.593231H25.7502V2.59323ZM41.6591 1.59323V129H43.6591V1.59323H41.6591ZM42.6591 128H23.784V130H42.6591V128Z" fill="#242429"/>
</svg>
