<svg width="90" height="116" viewBox="0 0 90 116" fill="none" xmlns="http://www.w3.org/2000/svg">
<path d="M22.8009 53.8929L22.1233 53.1575L21.5279 53.7062L21.9406 54.4027L22.8009 53.8929ZM60.3545 19.2886L61.0321 20.024L62.9154 18.2886H60.3545V19.2886ZM-0.596307 19.2886H-1.59631V20.2886H-0.596307V19.2886ZM-0.596307 1.59323V0.593231H-1.59631V1.59323H-0.596307ZM85.9145 1.59323H86.9145V0.593231H85.9145V1.59323ZM85.9145 18.8954L86.5932 19.6297L86.9145 19.3328V18.8954H85.9145ZM49.5406 52.5166L48.8618 51.7823L46.9855 53.5166H49.5406V52.5166ZM63.5003 54.876L63.176 55.822L63.1841 55.8247L63.5003 54.876ZM76.0837 62.1508L75.4177 62.8967L75.4317 62.9092L75.4461 62.9212L76.0837 62.1508ZM85.3246 74.1443L86.2239 73.7068L85.3246 74.1443ZM85.7178 106.782L84.7961 106.394L84.7911 106.407L85.7178 106.782ZM76.8702 119.759L77.5652 120.478L76.8702 119.759ZM62.3206 128.803L61.9602 127.871L61.953 127.873L62.3206 128.803ZM22.9975 128.803L22.6371 129.736H22.6371L22.9975 128.803ZM8.25139 119.956L7.55636 120.675L7.56854 120.686L7.5811 120.698L8.25139 119.956ZM-0.989538 107.176L-1.89826 107.593L-1.89379 107.603L-0.989538 107.176ZM-4.72523 92.0363L-4.94861 91.0616L-5.76585 91.2489L-5.72398 92.0862L-4.72523 92.0363ZM14.1498 87.7108L15.1494 87.6795L15.1114 86.4645L13.9265 86.736L14.1498 87.7108ZM16.7058 99.1145L17.6138 98.6954L16.7058 99.1145ZM22.8009 107.766L22.1132 108.491L22.1225 108.5L22.132 108.509L22.8009 107.766ZM31.6486 113.271L31.2772 114.199L31.2896 114.204L31.6486 113.271ZM54.0628 113.467L54.3899 114.412L54.4059 114.407L54.4218 114.401L54.0628 113.467ZM62.5172 108.355L63.2026 109.084L63.2136 109.073L63.2243 109.062L62.5172 108.355ZM67.0394 80.8292L66.1373 81.2607L66.1448 81.2764L66.1528 81.2918L67.0394 80.8292ZM61.1409 73.5545L60.5213 74.3393L60.5343 74.3497L60.5477 74.3595L61.1409 73.5545ZM52.6865 69.2289L52.3953 70.1857L52.4065 70.1889L52.6865 69.2289ZM32.2385 69.8188L31.3782 70.3286L31.7984 71.0378L32.5748 70.7605L32.2385 69.8188ZM23.4786 54.6283L61.0321 20.024L59.6768 18.5532L22.1233 53.1575L23.4786 54.6283ZM60.3545 18.2886H-0.596307V20.2886H60.3545V18.2886ZM0.403693 19.2886V1.59323H-1.59631V19.2886H0.403693ZM-0.596307 2.59323H85.9145V0.593231H-0.596307V2.59323ZM84.9145 1.59323V18.8954H86.9145V1.59323H84.9145ZM85.2357 18.161L48.8618 51.7823L50.2194 53.251L86.5932 19.6297L85.2357 18.161ZM49.5406 53.5166C54.146 53.5166 58.6897 54.2838 63.176 55.8219L63.8246 53.9301C59.1355 52.3223 54.3728 51.5166 49.5406 51.5166V53.5166ZM63.1841 55.8247C67.7751 57.355 71.8502 59.7115 75.4177 62.8967L76.7497 61.4048C72.9768 58.0362 68.663 55.5428 63.8165 53.9273L63.1841 55.8247ZM75.4461 62.9212C79.1275 65.9678 82.1226 69.8482 84.4254 74.5818L86.2239 73.7068C83.8079 68.7407 80.6424 64.6254 76.7213 61.3804L75.4461 62.9212ZM84.4254 74.5818C86.7057 79.2691 87.8637 84.8155 87.8637 91.2498H89.8637C89.8637 84.5765 88.6623 78.7192 86.2239 73.7068L84.4254 74.5818ZM87.8637 91.2498C87.8637 96.4899 86.842 101.536 84.7962 106.394L86.6395 107.171C88.7881 102.067 89.8637 96.7581 89.8637 91.2498H87.8637ZM84.7911 106.407C82.8798 111.121 80.0117 115.331 76.1751 119.04L77.5652 120.478C81.5932 116.584 84.6236 112.143 86.6446 107.158L84.7911 106.407ZM76.1751 119.04C72.3507 122.737 67.6191 125.684 61.9602 127.871L62.681 129.736C68.5569 127.466 73.525 124.384 77.5652 120.478L76.1751 119.04ZM61.953 127.873C56.4575 130.046 50.0329 131.146 42.6591 131.146V133.146C50.228 133.146 56.9112 132.017 62.6883 129.733L61.953 127.873ZM42.6591 131.146C35.4195 131.146 28.991 130.047 23.3579 127.871L22.6371 129.736C28.5388 132.016 35.2181 133.146 42.6591 133.146V131.146ZM23.3579 127.871C17.69 125.681 12.8833 122.792 8.92167 119.214L7.5811 120.698C11.7462 124.46 16.7703 127.469 22.6371 129.736L23.3579 127.871ZM8.94641 119.237C5.09667 115.515 2.08902 111.353 -0.085289 106.749L-1.89379 107.603C0.388519 112.436 3.54149 116.794 7.55636 120.675L8.94641 119.237ZM-0.0808611 106.758C-2.25693 102.022 -3.47079 97.1002 -3.72648 91.9864L-5.72398 92.0862C-5.45536 97.4586 -4.17876 102.63 -1.89821 107.593L-0.0808611 106.758ZM-4.50185 93.011L14.3732 88.6855L13.9265 86.736L-4.94861 91.0616L-4.50185 93.011ZM13.1503 87.742C13.2851 92.0547 14.1625 95.9901 15.7979 99.5335L17.6138 98.6954C16.1034 95.4228 15.2767 91.7557 15.1494 87.6795L13.1503 87.742ZM15.7979 99.5335C17.419 103.046 19.5222 106.037 22.1132 108.491L23.4887 107.04C21.0988 104.775 19.1385 101.999 17.6138 98.6954L15.7979 99.5335ZM22.132 108.509C24.8411 110.947 27.8911 112.845 31.2772 114.199L32.02 112.342C28.8523 111.075 26.0038 109.303 23.4699 107.022L22.132 108.509ZM31.2896 114.204C34.8169 115.561 38.5436 116.237 42.4625 116.237V114.237C38.7789 114.237 35.2964 113.602 32.0076 112.337L31.2896 114.204ZM42.4625 116.237C46.8778 116.237 50.8581 115.635 54.3899 114.412L53.7357 112.522C50.4515 113.659 46.6982 114.237 42.4625 114.237V116.237ZM54.4218 114.401C57.9279 113.052 60.8635 111.285 63.2026 109.084L61.8319 107.627C59.7144 109.62 57.0136 111.261 53.7038 112.534L54.4218 114.401ZM63.2243 109.062C65.5454 106.741 67.3242 104.074 68.5548 101.066L66.7037 100.309C65.5749 103.068 63.9456 105.513 61.8101 107.648L63.2243 109.062ZM68.5548 101.066C69.7841 98.061 70.3988 94.9175 70.3988 91.6431H68.3988C68.3988 94.6604 67.8337 97.5464 66.7037 100.309L68.5548 101.066ZM70.3988 91.6431C70.3988 87.3246 69.5888 83.5538 67.926 80.3667L66.1528 81.2918C67.6358 84.1342 68.3988 87.5727 68.3988 91.6431H70.3988ZM67.9415 80.3978C66.4347 77.2472 64.3671 74.6895 61.7341 72.7494L60.5477 74.3595C62.8957 76.0896 64.7604 78.3817 66.1373 81.2607L67.9415 80.3978ZM61.7606 72.7696C59.1659 70.7211 56.2316 69.2213 52.9665 68.2689L52.4065 70.1889C55.433 71.0717 58.135 72.4555 60.5213 74.3393L61.7606 72.7696ZM52.9776 68.2722C49.8686 67.326 46.6902 66.8526 43.4455 66.8526V68.8526C46.4926 68.8526 49.4748 69.2967 52.3953 70.1856L52.9776 68.2722ZM43.4455 66.8526C39.5268 66.8526 35.6775 67.5287 31.9021 68.877L32.5748 70.7605C36.1398 69.4873 39.7618 68.8526 43.4455 68.8526V66.8526ZM33.0988 69.309L23.6612 53.3831L21.9406 54.4027L31.3782 70.3286L33.0988 69.309Z" fill="#242429"/>
</svg>
