<svg width="16" height="16" viewBox="0 0 16 16" fill="none" xmlns="http://www.w3.org/2000/svg">
<path fill-rule="evenodd" clip-rule="evenodd" d="M8 15C6.14348 15 4.36301 14.2625 3.05025 12.9497C1.7375 11.637 1 9.85652 1 8C1 6.14348 1.7375 4.36301 3.05025 3.05025C4.36301 1.7375 6.14348 1 8 1C9.85652 1 11.637 1.7375 12.9497 3.05025C14.2625 4.36301 15 6.14348 15 8C15 9.85652 14.2625 11.637 12.9497 12.9497C11.637 14.2625 9.85652 15 8 15ZM8 16C5.87827 16 3.84344 15.1571 2.34315 13.6569C0.842854 12.1566 0 10.1217 0 8C0 5.87827 0.842854 3.84344 2.34315 2.34315C3.84344 0.842855 5.87827 0 8 0C10.1217 0 12.1566 0.842855 13.6569 2.34315C15.1571 3.84344 16 5.87827 16 8C16 10.1217 15.1571 12.1566 13.6569 13.6569C12.1566 15.1571 10.1217 16 8 16Z" fill="#999999"/>
<path fill-rule="evenodd" clip-rule="evenodd" d="M8.35402 11.3541C8.40059 11.3077 8.43753 11.2525 8.46273 11.1918C8.48794 11.131 8.50092 11.0659 8.50092 11.0001C8.50092 10.9344 8.48794 10.8693 8.46273 10.8085C8.43753 10.7478 8.40059 10.6926 8.35402 10.6461L5.70702 8.00014L8.35402 5.35414C8.40051 5.30766 8.43739 5.25247 8.46255 5.19173C8.4877 5.13099 8.50065 5.06589 8.50065 5.00014C8.50065 4.9344 8.4877 4.8693 8.46255 4.80856C8.43739 4.74782 8.40051 4.69263 8.35402 4.64614C8.30753 4.59966 8.25234 4.56278 8.19161 4.53762C8.13087 4.51246 8.06577 4.49951 8.00002 4.49951C7.93428 4.49951 7.86918 4.51246 7.80844 4.53762C7.7477 4.56278 7.69251 4.59966 7.64602 4.64614L4.64602 7.64614C4.59946 7.69259 4.56252 7.74776 4.53731 7.80851C4.5121 7.86926 4.49913 7.93438 4.49913 8.00014C4.49913 8.06591 4.5121 8.13103 4.53731 8.19178C4.56252 8.25252 4.59946 8.3077 4.64602 8.35414L7.64602 11.3541C7.69247 11.4007 7.74764 11.4376 7.80839 11.4629C7.86913 11.4881 7.93425 11.501 8.00002 11.501C8.06579 11.501 8.13091 11.4881 8.19166 11.4629C8.2524 11.4376 8.30758 11.4007 8.35402 11.3541Z" fill="#999999"/>
<path fill-rule="evenodd" clip-rule="evenodd" d="M11.5 8C11.5 7.86739 11.4473 7.74021 11.3536 7.64645C11.2598 7.55268 11.1326 7.5 11 7.5H6C5.86739 7.5 5.74021 7.55268 5.64645 7.64645C5.55268 7.74021 5.5 7.86739 5.5 8C5.5 8.13261 5.55268 8.25979 5.64645 8.35355C5.74021 8.44732 5.86739 8.5 6 8.5H11C11.1326 8.5 11.2598 8.44732 11.3536 8.35355C11.4473 8.25979 11.5 8.13261 11.5 8Z" fill="#999999"/>
</svg>
