<svg width="16" height="16" viewBox="0 0 16 16" fill="none" xmlns="http://www.w3.org/2000/svg">
<path fill-rule="evenodd" clip-rule="evenodd" d="M8 15C9.85652 15 11.637 14.2625 12.9497 12.9497C14.2625 11.637 15 9.85652 15 8C15 6.14348 14.2625 4.36301 12.9497 3.05025C11.637 1.7375 9.85652 1 8 1C6.14348 1 4.36301 1.7375 3.05025 3.05025C1.7375 4.36301 1 6.14348 1 8C1 9.85652 1.7375 11.637 3.05025 12.9497C4.36301 14.2625 6.14348 15 8 15ZM8 16C10.1217 16 12.1566 15.1571 13.6569 13.6569C15.1571 12.1566 16 10.1217 16 8C16 5.87827 15.1571 3.84344 13.6569 2.34315C12.1566 0.842855 10.1217 0 8 0C5.87827 0 3.84344 0.842855 2.34315 2.34315C0.842855 3.84344 0 5.87827 0 8C0 10.1217 0.842855 12.1566 2.34315 13.6569C3.84344 15.1571 5.87827 16 8 16Z" fill="white"/>
<path fill-rule="evenodd" clip-rule="evenodd" d="M7.64601 11.3541C7.59945 11.3077 7.5625 11.2525 7.5373 11.1918C7.51209 11.131 7.49911 11.0659 7.49911 11.0001C7.49911 10.9344 7.51209 10.8693 7.5373 10.8085C7.5625 10.7478 7.59945 10.6926 7.64601 10.6461L10.293 8.00014L7.64601 5.35414C7.59952 5.30766 7.56264 5.25247 7.53749 5.19173C7.51233 5.13099 7.49938 5.06589 7.49938 5.00014C7.49938 4.9344 7.51233 4.8693 7.53749 4.80856C7.56264 4.74782 7.59952 4.69263 7.64601 4.64614C7.6925 4.59966 7.74769 4.56278 7.80842 4.53762C7.86916 4.51246 7.93426 4.49951 8.00001 4.49951C8.06575 4.49951 8.13085 4.51246 8.19159 4.53762C8.25233 4.56278 8.30752 4.59966 8.35401 4.64614L11.354 7.64614C11.4006 7.69259 11.4375 7.74776 11.4627 7.80851C11.4879 7.86926 11.5009 7.93438 11.5009 8.00014C11.5009 8.06591 11.4879 8.13103 11.4627 8.19178C11.4375 8.25252 11.4006 8.3077 11.354 8.35414L8.35401 11.3541C8.30756 11.4007 8.25239 11.4376 8.19164 11.4629C8.1309 11.4881 8.06578 11.501 8.00001 11.501C7.93424 11.501 7.86912 11.4881 7.80837 11.4629C7.74763 11.4376 7.69245 11.4007 7.64601 11.3541Z" fill="white"/>
<path fill-rule="evenodd" clip-rule="evenodd" d="M4.5 8C4.5 7.86739 4.55268 7.74021 4.64645 7.64645C4.74021 7.55268 4.86739 7.5 5 7.5H10C10.1326 7.5 10.2598 7.55268 10.3536 7.64645C10.4473 7.74021 10.5 7.86739 10.5 8C10.5 8.13261 10.4473 8.25979 10.3536 8.35355C10.2598 8.44732 10.1326 8.5 10 8.5H5C4.86739 8.5 4.74021 8.44732 4.64645 8.35355C4.55268 8.25979 4.5 8.13261 4.5 8Z" fill="white"/>
</svg>
