<svg width="32" height="32" viewBox="0 0 32 32" fill="none" xmlns="http://www.w3.org/2000/svg">
<path fill-rule="evenodd" clip-rule="evenodd" d="M11.708 22.7082C11.6151 22.8013 11.5048 22.8752 11.3833 22.9256C11.2618 22.976 11.1315 23.002 11 23.002C10.8685 23.002 10.7382 22.976 10.6167 22.9256C10.4952 22.8752 10.3849 22.8013 10.292 22.7082L4.292 16.7082C4.19887 16.6153 4.12499 16.5049 4.07457 16.3834C4.02416 16.2619 3.99821 16.1317 3.99821 16.0002C3.99821 15.8686 4.02416 15.7384 4.07457 15.6169C4.12499 15.4954 4.19887 15.3851 4.292 15.2922L10.292 9.29217C10.4798 9.10439 10.7344 8.9989 11 8.9989C11.2655 8.9989 11.5202 9.10439 11.708 9.29217C11.8958 9.47994 12.0013 9.73462 12.0013 10.0002C12.0013 10.2657 11.8958 10.5204 11.708 10.7082L6.414 16.0002L11.708 21.2922C11.8011 21.3851 11.875 21.4954 11.9254 21.6169C11.9758 21.7384 12.0018 21.8686 12.0018 22.0002C12.0018 22.1317 11.9758 22.2619 11.9254 22.3834C11.875 22.5049 11.8011 22.6153 11.708 22.7082Z" fill="#808080"/>
<path fill-rule="evenodd" clip-rule="evenodd" d="M28 16C28 16.2652 27.8946 16.5196 27.7071 16.7071C27.5196 16.8946 27.2652 17 27 17L6 17C5.73478 17 5.48043 16.8946 5.29289 16.7071C5.10536 16.5196 5 16.2652 5 16C5 15.7348 5.10536 15.4804 5.29289 15.2929C5.48043 15.1054 5.73478 15 6 15L27 15C27.2652 15 27.5196 15.1054 27.7071 15.2929C27.8946 15.4804 28 15.7348 28 16Z" fill="#808080"/>
</svg>
