<svg width="16" height="16" viewBox="0 0 16 16" fill="none" xmlns="http://www.w3.org/2000/svg">
<g clip-path="url(#clip0)">
<path d="M4.62501 3.0025C5.09401 3.0025 5.51801 3.0415 5.90651 3.1275C6.28951 3.2135 6.62001 3.3465 6.89601 3.534C7.16951 3.7215 7.38301 3.9665 7.53651 4.2815C7.68501 4.594 7.76301 4.982 7.76301 5.435C7.76301 5.927 7.64851 6.3415 7.42451 6.6745C7.19801 7.008 6.86701 7.2735 6.42201 7.487C7.02601 7.6615 7.47401 7.966 7.77101 8.401C8.07051 8.841 8.21351 9.367 8.21351 9.974C8.21351 10.474 8.12751 10.901 7.94001 11.2605C7.75998 11.6197 7.49434 11.9292 7.16651 12.1615C6.84601 12.3935 6.46601 12.56 6.05451 12.672C5.63928 12.7841 5.21111 12.8411 4.78101 12.8415H-0.000488281V3.008H4.62451L4.62501 3.0025ZM11.2945 11.1095C11.586 11.396 12.008 11.539 12.5575 11.539C12.9505 11.539 13.2895 11.44 13.5755 11.2395C13.8595 11.047 14.0285 10.833 14.0965 10.6145H15.8205C15.5525 11.466 15.1225 12.0805 14.555 12.448C13.9875 12.8205 13.3 13 12.503 13C11.943 13 11.4455 12.914 10.9875 12.7345C10.5562 12.5645 10.1657 12.3053 9.84151 11.974C9.53151 11.6485 9.29201 11.255 9.12251 10.7945C8.95301 10.334 8.87251 9.8285 8.87251 9.2815C8.87251 8.745 8.96351 8.2555 9.14351 7.7945C9.31094 7.35185 9.56412 6.9466 9.88851 6.602C10.219 6.261 10.597 6.0055 11.0475 5.805C11.4955 5.6045 11.98 5.516 12.5265 5.516C13.1335 5.516 13.654 5.6255 14.1125 5.865C14.5482 6.08678 14.927 6.40584 15.2195 6.7975C15.514 7.188 15.7195 7.6385 15.847 8.1465C15.9745 8.6465 16.0135 9.1725 15.9875 9.7325H10.86C10.86 10.2925 11.0475 10.821 11.334 11.1075L11.2795 11.1285L11.2945 11.1095ZM4.46601 11.143C4.67701 11.143 4.88001 11.122 5.07001 11.0805C5.25013 11.0451 5.42229 10.9772 5.57801 10.88C5.71851 10.7915 5.83851 10.661 5.92701 10.492C6.01301 10.333 6.05201 10.112 6.05201 9.8515C6.05201 9.3515 5.90601 8.992 5.62501 8.7735C5.33851 8.56 4.96601 8.453 4.50001 8.453H2.15901V11.1535H4.46651V11.1325L4.46601 11.143ZM13.539 7.3775C13.302 7.1195 12.9115 6.9815 12.432 6.9815C12.122 6.9815 11.8645 7.031 11.656 7.1405C11.4645 7.23404 11.2955 7.36814 11.161 7.5335C11.0412 7.68078 10.9525 7.8509 10.9005 8.0335C10.854 8.18786 10.8244 8.34678 10.812 8.5075H13.9865C13.9395 8.0075 13.765 7.6405 13.5335 7.38V7.388L13.539 7.3775ZM4.34651 6.966C4.72951 6.966 5.04701 6.8775 5.29701 6.6925C5.54701 6.513 5.66701 6.2105 5.66701 5.7995C5.66701 5.5705 5.62001 5.383 5.54701 5.237C5.46596 5.09735 5.35133 4.98014 5.21351 4.896C5.06465 4.80981 4.90131 4.75152 4.73151 4.724C4.54693 4.68908 4.35935 4.6725 4.17151 4.6745H2.15351V6.966H4.34651ZM10.4115 3.6615H14.3905V4.63H10.4115V3.6535V3.6615Z" fill="#999999"/>
</g>
<defs>
<clipPath id="clip0">
<rect width="16" height="16" fill="white"/>
</clipPath>
</defs>
</svg>
