<svg width="12" height="12" viewBox="0 0 12 12" fill="none" xmlns="http://www.w3.org/2000/svg">
<path fill-rule="evenodd" clip-rule="evenodd" d="M1.2345 4.9845C1.26933 4.94958 1.31072 4.92187 1.35627 4.90296C1.40183 4.88406 1.45067 4.87433 1.5 4.87433C1.54933 4.87433 1.59817 4.88406 1.64373 4.90296C1.68928 4.92187 1.73067 4.94958 1.7655 4.9845L6 9.21975L10.2345 4.9845C10.3049 4.91408 10.4004 4.87452 10.5 4.87452C10.5996 4.87452 10.6951 4.91408 10.7655 4.9845C10.8359 5.05491 10.8755 5.15042 10.8755 5.25C10.8755 5.34958 10.8359 5.44508 10.7655 5.5155L6.2655 10.0155C6.23067 10.0504 6.18928 10.0781 6.14372 10.097C6.09817 10.1159 6.04933 10.1257 6 10.1257C5.95067 10.1257 5.90183 10.1159 5.85627 10.097C5.81072 10.0781 5.76933 10.0504 5.7345 10.0155L1.2345 5.5155C1.19958 5.48066 1.17187 5.43928 1.15297 5.39372C1.13406 5.34817 1.12433 5.29932 1.12433 5.25C1.12433 5.20067 1.13406 5.15183 1.15297 5.10627C1.17187 5.06071 1.19958 5.01933 1.2345 4.9845Z" fill="#999999"/>
<path fill-rule="evenodd" clip-rule="evenodd" d="M1.2345 1.9845C1.26933 1.94958 1.31072 1.92187 1.35627 1.90296C1.40183 1.88406 1.45067 1.87433 1.5 1.87433C1.54933 1.87433 1.59817 1.88406 1.64373 1.90296C1.68928 1.92187 1.73067 1.94958 1.7655 1.9845L6 6.21975L10.2345 1.9845C10.2694 1.94963 10.3108 1.92198 10.3563 1.90311C10.4019 1.88424 10.4507 1.87453 10.5 1.87453C10.5493 1.87453 10.5981 1.88424 10.6437 1.90311C10.6892 1.92198 10.7306 1.94963 10.7655 1.9845C10.8004 2.01936 10.828 2.06076 10.8469 2.10631C10.8658 2.15187 10.8755 2.20069 10.8755 2.25C10.8755 2.29931 10.8658 2.34813 10.8469 2.39369C10.828 2.43924 10.8004 2.48063 10.7655 2.5155L6.2655 7.0155C6.23067 7.05042 6.18928 7.07813 6.14372 7.09703C6.09817 7.11594 6.04933 7.12567 6 7.12567C5.95067 7.12567 5.90183 7.11594 5.85627 7.09703C5.81072 7.07813 5.76933 7.05042 5.7345 7.0155L1.2345 2.5155C1.19958 2.48066 1.17187 2.43928 1.15297 2.39372C1.13406 2.34817 1.12433 2.29932 1.12433 2.25C1.12433 2.20067 1.13406 2.15183 1.15297 2.10627C1.17187 2.06071 1.19958 2.01933 1.2345 1.9845Z" fill="#999999"/>
</svg>
