<svg width="20" height="20" viewBox="0 0 20 20" fill="none" xmlns="http://www.w3.org/2000/svg">
<path d="M10 5.00001C9.77899 5.00001 9.56703 5.0878 9.41075 5.24408C9.25446 5.40036 9.16667 5.61232 9.16667 5.83334V7.50001C9.16667 7.72102 9.25446 7.93298 9.41075 8.08926C9.56703 8.24554 9.77899 8.33334 10 8.33334C10.221 8.33334 10.433 8.24554 10.5893 8.08926C10.7455 7.93298 10.8333 7.72102 10.8333 7.50001V5.83334C10.8333 5.61232 10.7455 5.40036 10.5893 5.24408C10.433 5.0878 10.221 5.00001 10 5.00001ZM10 1.66667C8.4529 1.66667 6.96917 2.28125 5.87521 3.37522C4.78125 4.46918 4.16667 5.95291 4.16667 7.50001V12.5C4.16667 14.0471 4.78125 15.5308 5.87521 16.6248C6.96917 17.7188 8.4529 18.3333 10 18.3333C11.5471 18.3333 13.0308 17.7188 14.1248 16.6248C15.2188 15.5308 15.8333 14.0471 15.8333 12.5V7.50001C15.8333 5.95291 15.2188 4.46918 14.1248 3.37522C13.0308 2.28125 11.5471 1.66667 10 1.66667ZM14.1667 12.5C14.1667 13.6051 13.7277 14.6649 12.9463 15.4463C12.1649 16.2277 11.1051 16.6667 10 16.6667C8.89493 16.6667 7.83512 16.2277 7.05372 15.4463C6.27232 14.6649 5.83333 13.6051 5.83333 12.5V7.50001C5.83333 6.39494 6.27232 5.33513 7.05372 4.55373C7.83512 3.77233 8.89493 3.33334 10 3.33334C11.1051 3.33334 12.1649 3.77233 12.9463 4.55373C13.7277 5.33513 14.1667 6.39494 14.1667 7.50001V12.5Z" fill="#999999"/>
</svg>
