<svg width="16" height="16" viewBox="0 0 16 16" fill="none" xmlns="http://www.w3.org/2000/svg">
<path d="M14.3963 15.5C14.3638 14.5888 13.625 13.3788 12.6688 12.8763C11.4113 12.215 9.80128 12 7.99878 12C6.88628 12 6.00128 12.3275 4.95503 11.9988C4.40003 11.8238 4.01628 11.5375 3.83378 10.9763L3.66878 10.47L0.652527 11.22C0.652527 11.22 1.28003 13.9563 1.59878 15.5H14.3963Z" fill="url(#paint0_linear)"/>
<path d="M9.13377 11.26H6.86377V12.5075C6.86377 13.0713 7.32627 13.5288 7.89627 13.5288H8.10252C8.67252 13.5288 9.13502 13.0713 9.13502 12.5075V11.26H9.13377Z" fill="#E59600"/>
<path d="M11.4162 6.30374H4.58374C3.84749 6.30374 3.245 6.94624 3.245 7.72999C3.245 8.51499 3.84749 9.15624 4.58374 9.15624H11.415C12.1512 9.15624 12.7537 8.51374 12.7537 7.72999C12.755 6.94624 12.1525 6.30374 11.4162 6.30374Z" fill="#E59600"/>
<path d="M8 1.38376C5.825 1.38376 3.81 3.71001 3.81 7.05751C3.81 10.3875 5.88625 12.0338 8 12.0338C10.1137 12.0338 12.19 10.3875 12.19 7.05751C12.19 3.71001 10.175 1.38376 8 1.38376Z" fill="#FFCA28"/>
<path d="M9.05249 9.51749C8.65374 9.75374 7.34874 9.75374 6.95124 9.51749C6.72249 9.38124 6.48874 9.58999 6.58374 9.79749C6.67749 10.0012 7.38999 10.475 8.00499 10.475C8.61999 10.475 9.32374 10.0012 9.41749 9.79749C9.51124 9.58999 9.28124 9.38124 9.05249 9.51749Z" fill="#795548"/>
<path d="M8.48248 8.5075C8.46873 8.5025 8.45623 8.49875 8.44248 8.4975H7.55873C7.54498 8.49875 7.53123 8.5025 7.51873 8.5075C7.43873 8.54 7.39498 8.6225 7.43248 8.71125C7.46998 8.8 7.64623 9.0475 8.00123 9.0475C8.35623 9.0475 8.53248 8.79875 8.56998 8.71125C8.60623 8.6225 8.56248 8.54 8.48248 8.5075Z" fill="#E59600"/>
<path d="M5.94499 7.98875C6.28533 7.98875 6.56123 7.70333 6.56123 7.35125C6.56123 6.99916 6.28533 6.71375 5.94499 6.71375C5.60464 6.71375 5.32874 6.99916 5.32874 7.35125C5.32874 7.70333 5.60464 7.98875 5.94499 7.98875Z" fill="#404040"/>
<path d="M10.055 7.98875C10.3953 7.98875 10.6712 7.70333 10.6712 7.35125C10.6712 6.99916 10.3953 6.71375 10.055 6.71375C9.71463 6.71375 9.43872 6.99916 9.43872 7.35125C9.43872 7.70333 9.71463 7.98875 10.055 7.98875Z" fill="#404040"/>
<path d="M11.01 6.34874C11.01 6.34749 10.7238 5.89749 10.06 5.89749C9.39626 5.89749 9.11001 6.34749 9.11001 6.34749V6.34874C9.08626 6.38124 9.07251 6.42124 9.07251 6.46374C9.07251 6.57249 9.16126 6.66124 9.26876 6.66124C9.29126 6.66124 9.34626 6.64499 9.35126 6.64249C9.74876 6.47874 10.06 6.47749 10.06 6.47749C10.06 6.47749 10.3688 6.47874 10.7663 6.64249C10.7713 6.64499 10.8263 6.66124 10.8488 6.66124C10.9575 6.66124 11.045 6.57249 11.045 6.46374C11.0488 6.41999 11.0338 6.37999 11.01 6.34874Z" fill="#6D4C41"/>
<path d="M6.88501 6.34874C6.88626 6.34749 6.59876 5.89749 5.93626 5.89749C5.27376 5.89749 4.98626 6.34749 4.98626 6.34749L4.98751 6.34874C4.96376 6.38124 4.95001 6.42124 4.95001 6.46374C4.95001 6.57249 5.03876 6.66124 5.14751 6.66124C5.17001 6.66124 5.22501 6.64499 5.23001 6.64249C5.62751 6.47874 5.93876 6.47749 5.93876 6.47749C5.93876 6.47749 6.24751 6.47874 6.64501 6.64249C6.65001 6.64499 6.70501 6.66124 6.72751 6.66124C6.83626 6.66124 6.92501 6.57249 6.92501 6.46374C6.9234 6.42228 6.90948 6.38225 6.88501 6.34874Z" fill="#6D4C41"/>
<path d="M8.00128 0.503754H7.99628C2.31628 0.533754 3.48003 7.02125 3.48003 7.02125C3.48003 7.02125 3.73503 7.69 3.85128 7.985C3.86753 8.0275 3.93003 8.0225 3.94003 7.97875C4.06128 7.43625 4.49753 5.5125 4.71753 4.92875C4.78053 4.7619 4.90019 4.62252 5.05558 4.535C5.21097 4.44747 5.3922 4.41739 5.56753 4.45C6.12378 4.55125 7.01128 4.67625 7.98878 4.67625H8.00878C8.98628 4.67625 9.87378 4.55125 10.43 4.45C10.7925 4.38375 11.15 4.585 11.2788 4.92875C11.4975 5.51125 11.9313 7.42375 12.0538 7.97375C12.0638 8.01875 12.1263 8.0225 12.1425 7.98L12.515 7.02125C12.5175 7.02125 13.68 0.533754 8.00128 0.503754Z" fill="#543930"/>
<path d="M12.5175 7.02126C12.5175 7.02126 13.6813 0.533754 8.00125 0.503754H7.99625C7.9075 0.503754 7.82125 0.506254 7.73625 0.510004C7.5675 0.517504 7.40375 0.530004 7.24625 0.548754H7.24125C7.23 0.550004 7.22 0.552504 7.20875 0.553754C2.42875 1.155 3.48 7.02126 3.48 7.02126L3.8525 7.98126C3.86875 8.02376 3.93 8.02001 3.94 7.97501C4.0625 7.42626 4.4975 5.51126 4.7175 4.92876C4.78049 4.76191 4.90016 4.62252 5.05555 4.535C5.21094 4.44748 5.39216 4.41739 5.5675 4.45C6.12375 4.55125 7.01125 4.67626 7.98875 4.67626H8.00875C8.98625 4.67626 9.87375 4.55125 10.43 4.45C10.7925 4.38375 11.15 4.58501 11.2788 4.92876C11.4988 5.51376 11.935 7.44126 12.055 7.98126C12.065 8.02626 12.1263 8.03001 12.1425 7.98751C12.26 7.69251 12.5175 7.02126 12.5175 7.02126Z" fill="url(#paint1_radial)"/>
<path d="M5.54124 3.92875C5.25374 3.9325 4.70874 4.36875 4.49124 4.64875C4.13624 5.10375 3.88499 6.0525 2.71499 5.6875C2.50624 5.62375 1.67249 5.48375 1.52874 5.4C1.43124 5.34375 1.17249 4.8825 1.33624 3.93875C1.39749 3.58 1.54374 2.7125 1.54374 2.7125L1.74999 1.35375C1.77624 1.125 1.93499 0.977504 2.15124 1.03125C2.32499 1.075 2.37374 1.23125 2.36124 1.435L2.31249 2.2525V2.2575C2.31249 2.29375 2.33874 2.32625 2.37624 2.33375C2.41749 2.34125 2.45749 2.315 2.46624 2.27375C2.52624 2 2.73374 1.04875 2.77999 0.880004C2.83499 0.682504 2.93874 0.525004 3.15999 0.573754C3.38124 0.621254 3.41624 0.851254 3.37874 1.0325C3.34249 1.2125 3.10624 2.46625 3.10624 2.46625C3.09749 2.51 3.12124 2.55125 3.16249 2.56125H3.16374C3.20249 2.57 3.24249 2.54375 3.25374 2.5025L3.76874 0.808754C3.82999 0.586254 4.01999 0.450004 4.22374 0.541254C4.38624 0.615004 4.42249 0.802504 4.37124 0.988754L3.93499 2.7175C3.92999 2.7375 3.93999 2.75875 3.95874 2.765H3.95999C3.97749 2.77 3.99749 2.76 4.00374 2.74125L4.59124 1.3225C4.66124 1.14375 4.81624 1.01875 4.98874 1.06375C5.20874 1.11875 5.27374 1.3425 5.19124 1.55625C5.19124 1.55625 4.62999 3.09 4.45249 3.5625C4.44999 3.57125 4.44624 3.58 4.44374 3.5875C4.44249 3.59 4.44124 3.59125 4.44124 3.5925C4.43682 3.60414 4.43527 3.61667 4.43672 3.62903C4.43817 3.6414 4.44258 3.65323 4.44957 3.66353C4.45656 3.67383 4.46592 3.68229 4.47688 3.68821C4.48783 3.69412 4.50005 3.69731 4.51249 3.6975C4.52499 3.6975 4.53749 3.69375 4.54999 3.68875C4.56124 3.6825 4.57249 3.6775 4.58249 3.67L4.59374 3.6625C4.77124 3.5525 4.93999 3.31125 5.21499 3.275C5.51499 3.235 5.70874 3.3475 5.77249 3.4775C5.82749 3.58625 5.82874 3.92375 5.54124 3.92875Z" fill="url(#paint2_linear)"/>
<path d="M3.64001 10.3825C3.58001 10.14 3.55751 9.88998 3.57251 9.64123L3.65126 5.99373C3.65751 5.89373 3.60501 5.80373 3.52251 5.75873C3.49251 5.73998 3.45876 5.72623 3.42251 5.72123L1.42626 5.25873C1.29751 5.24248 1.17751 5.32748 1.15001 5.45373C1.15001 5.45373 0.633758 9.31873 0.596258 9.62748C0.558758 9.93623 0.461258 10.3075 0.562508 10.775L0.652508 11.2187L3.87626 11.1325L3.64001 10.3825Z" fill="url(#paint3_linear)"/>
<path d="M4.47878 3.69C4.08878 3.7075 3.69878 3.75375 3.36003 3.9275C3.19003 4.01625 3.04003 4.13875 2.91253 4.285C2.81003 4.40125 2.72753 4.5325 2.65253 4.67375C2.65003 4.68 2.64378 4.68375 2.63878 4.68375C2.63003 4.68375 2.62503 4.6775 2.62378 4.67V4.66875C2.62378 4.665 2.73628 4.355 2.82878 4.22C2.94503 4.0475 3.10753 3.90375 3.29253 3.80125C3.47628 3.69875 3.67753 3.6325 3.88128 3.59875C4.07128 3.565 4.26253 3.555 4.45128 3.5625C4.44878 3.57125 4.44503 3.58 4.44253 3.5875C4.44128 3.59 4.44003 3.59125 4.44003 3.5925C4.42503 3.63375 4.44503 3.67375 4.47878 3.69Z" fill="#EDA600"/>
<defs>
<linearGradient id="paint0_linear" x1="7.5244" y1="10.5198" x2="7.5244" y2="14.6368" gradientUnits="userSpaceOnUse">
<stop stop-color="#00BFA5"/>
<stop offset="0.705" stop-color="#00B29A"/>
<stop offset="1" stop-color="#00AB94"/>
</linearGradient>
<radialGradient id="paint1_radial" cx="0" cy="0" r="1" gradientUnits="userSpaceOnUse" gradientTransform="translate(7.99875 5.88719) scale(4.7615 5.37193)">
<stop offset="0.794" stop-color="#6D4C41" stop-opacity="0"/>
<stop offset="1" stop-color="#6D4C41"/>
</radialGradient>
<linearGradient id="paint2_linear" x1="4.06837" y1="1.24413" x2="3.07299" y2="5.5315" gradientUnits="userSpaceOnUse">
<stop offset="0.5" stop-color="#FFCA28"/>
<stop offset="1" stop-color="#FFB300"/>
</linearGradient>
<linearGradient id="paint3_linear" x1="2.19688" y1="10.3687" x2="2.19688" y2="19.4936" gradientUnits="userSpaceOnUse">
<stop stop-color="#00BFA5"/>
<stop offset="0.705" stop-color="#00B29A"/>
<stop offset="1" stop-color="#00AB94"/>
</linearGradient>
</defs>
</svg>
