<svg width="16" height="16" viewBox="0 0 16 16" fill="none" xmlns="http://www.w3.org/2000/svg">
<path d="M5.52198 13.5087C10.5533 13.5087 13.306 9.33602 13.306 5.72402C13.306 5.60669 13.306 5.48935 13.3006 5.37202C13.8367 4.98357 14.2993 4.50272 14.6666 3.95202C14.1664 4.17304 13.6362 4.31885 13.0933 4.38469C13.6653 4.04221 14.0936 3.50377 14.2986 2.86935C13.761 3.18833 13.1724 3.41227 12.5586 3.53135C12.3032 3.25841 11.9944 3.04082 11.6514 2.89209C11.3084 2.74336 10.9385 2.66664 10.5646 2.66669C9.83882 2.66722 9.14288 2.95578 8.62964 3.46902C8.11641 3.98225 7.82784 4.6782 7.82731 5.40402C7.82731 5.61735 7.85398 5.82535 7.89665 6.02802C6.80858 5.97338 5.74416 5.69052 4.7725 5.1978C3.80085 4.70508 2.94368 4.01352 2.25665 3.16802C1.9075 3.77106 1.80092 4.48436 1.95854 5.16312C2.11615 5.84187 2.52616 6.43522 3.10531 6.82269C2.67136 6.80766 2.24704 6.69073 1.86665 6.48135V6.51869C1.86723 7.15022 2.0858 7.7622 2.48542 8.25121C2.88504 8.74023 3.44122 9.07632 4.05998 9.20269C3.82548 9.26737 3.58323 9.29967 3.33998 9.29869C3.16331 9.29869 2.99265 9.28269 2.82665 9.25069C3.00107 9.79455 3.34132 10.2702 3.7997 10.6109C4.25808 10.9517 4.81159 11.1404 5.38265 11.1507C4.41368 11.9124 3.21649 12.3257 1.98398 12.324C1.76531 12.324 1.54665 12.3134 1.33331 12.2867C2.58445 13.0851 4.0378 13.5091 5.52198 13.5087Z" fill="#999999"/>
</svg>
